<svg width="290" height="100" viewBox="0 0 290 100" fill="none" xmlns="http://www.w3.org/2000/svg">
<path d="M0.3 46L15.2 10.75H24.55L39.45 46H29.05L26.5 39.75H13L10.5 46H0.3ZM15.85 32.2H23.7L19.8 22.25L15.85 32.2ZM42.8461 46V11H51.8961L66.2961 29.5V11H75.8961V46H67.3961L52.4461 26.8V46H42.8461ZM82.1039 46V11H95.6039C108.104 11 115.354 18.2 115.354 28.3V28.4C115.354 38.5 108.004 46 95.4039 46H82.1039ZM91.8039 37.4H95.7539C101.554 37.4 105.404 34.2 105.404 28.55V28.45C105.404 22.85 101.554 19.6 95.7539 19.6H91.8039V37.4ZM137.936 46.7C127.136 46.7 119.136 38.65 119.136 28.6V28.5C119.136 18.45 127.236 10.3 138.036 10.3C148.836 10.3 156.836 18.35 156.836 28.4V28.5C156.836 38.55 148.736 46.7 137.936 46.7ZM138.036 37.95C143.386 37.95 146.936 33.65 146.936 28.6V28.5C146.936 23.45 143.286 19.05 137.936 19.05C132.636 19.05 129.086 23.35 129.086 28.4V28.5C129.086 33.55 132.736 37.95 138.036 37.95ZM161.889 46V11H178.439C183.789 11 187.489 12.4 189.839 14.8C191.889 16.8 192.939 19.5 192.939 22.95V23.05C192.939 28.4 190.089 31.95 185.739 33.8L194.089 46H182.889L175.839 35.4H175.739H171.589V46H161.889ZM171.589 27.8H177.989C181.289 27.8 183.189 26.2 183.189 23.65V23.55C183.189 20.8 181.189 19.4 177.939 19.4H171.589V27.8ZM206.657 46V32.9L193.357 11H204.407L211.607 23.75L218.857 11H229.707L216.407 32.75V46H206.657ZM248.44 46.65C238.49 46.65 232.24 41.6 232.24 30.65V11H242.09V30.45C242.09 35.5 244.64 37.9 248.54 37.9C252.44 37.9 254.99 35.6 254.99 30.7V11H264.84V30.4C264.84 41.7 258.39 46.65 248.44 46.65Z" fill="white"/>
<path d="M5.2 91V56H19.5C24.05 56 27.4 57.15 29.55 59.3C31.15 60.9 32.05 63.1 32.05 65.8V65.9C32.05 71.8 27.35 75.3 20.6 75.7L32.25 91H30.9L19.3 75.75H19.15H6.3V91H5.2ZM6.3 74.75H18.95C27.05 74.75 30.95 70.9 30.95 65.95V65.85C30.95 60.3 26.65 57 19.4 57H6.3V74.75ZM56.0934 91.6C49.2434 91.6 43.5934 86.55 43.5934 78.5V78.4C43.5934 71 48.6434 65.4 55.5934 65.4C63.4934 65.4 67.0934 72.35 67.0934 78.6C67.0934 78.7 67.0934 78.75 67.0934 78.8H44.7434C44.9434 86 49.9934 90.6 56.1434 90.6C59.9934 90.6 63.3934 88.35 65.3934 85.55L66.2434 86.15C64.0934 89.25 60.4934 91.6 56.0934 91.6ZM44.7434 77.85H65.9434C65.7434 72.15 62.1434 66.4 55.5434 66.4C49.3434 66.4 44.9934 71.3 44.7434 77.85ZM86.7438 91.6C81.8438 91.6 77.3938 89.05 77.3938 84.1V84C77.3938 78.75 82.2938 76.05 88.5438 76.05C92.0438 76.05 95.4438 76.7 97.9438 77.6V75.5C97.9438 69.45 94.3438 66.6 88.4938 66.6C85.3938 66.6 82.7938 67.45 80.1938 68.7L79.7938 67.8C82.5438 66.45 85.2938 65.6 88.5438 65.6C91.9938 65.6 94.6938 66.5 96.5438 68.35C98.0938 69.9 98.9938 72.35 98.9938 75.45V91H97.9438V85.1C96.8938 88 93.1438 91.6 86.7438 91.6ZM86.7938 90.6C93.4938 90.6 97.9438 86.3 97.9438 81.85V78.65C95.2938 77.65 92.3938 77.05 88.5938 77.05C82.9438 77.05 78.4938 79.35 78.4938 83.95V84.05C78.4938 88.45 82.3938 90.6 86.7938 90.6ZM123.814 91.6C116.664 91.6 111.064 85.65 111.064 78.55V78.45C111.064 71.35 116.614 65.4 123.864 65.4C128.464 65.4 131.364 67.4 133.864 70.05L133.114 70.75C130.864 68.35 128.014 66.4 123.814 66.4C117.164 66.4 112.164 71.9 112.164 78.4V78.5C112.164 85 117.314 90.6 123.864 90.6C128.164 90.6 131.064 88.45 133.264 85.95L134.014 86.65C131.664 89.4 128.514 91.6 123.814 91.6ZM153.591 91.45C149.441 91.45 147.191 88.95 147.191 84.6V66.95H143.241V66H147.191V57.35H148.241V66H157.491V66.95H148.241V84.5C148.241 88.25 150.041 90.45 153.591 90.45C154.841 90.45 156.191 90.15 157.391 89.55V90.65C156.191 91.2 154.891 91.45 153.591 91.45ZM189.057 91V56H200.307C211.307 56 218.907 63.6 218.907 73.45V73.55C218.907 83.4 211.307 91 200.307 91H189.057ZM190.157 90H200.357C210.657 90 217.807 82.75 217.807 73.6V73.5C217.807 64.3 210.607 57 200.257 57H190.157V90ZM242.978 91.6C236.128 91.6 230.478 86.55 230.478 78.5V78.4C230.478 71 235.528 65.4 242.478 65.4C250.378 65.4 253.978 72.35 253.978 78.6C253.978 78.7 253.978 78.75 253.978 78.8H231.628C231.828 86 236.878 90.6 243.028 90.6C246.878 90.6 250.278 88.35 252.278 85.55L253.128 86.15C250.978 89.25 247.378 91.6 242.978 91.6ZM231.628 77.85H252.828C252.628 72.15 249.028 66.4 242.428 66.4C236.228 66.4 231.878 71.3 231.628 77.85ZM274.109 91.2L262.509 66H263.659L274.509 89.9L285.309 66H286.409L274.909 91.2H274.109Z" fill="white"/>
</svg>
